{"title":"Tenacious D - HBO episodes (1997-2000) [AVI] [DivX] [Napisy PL]","uid":7264817,"size":535629697,"categoryP":"video","categoryS":"tv_shows","magnet":"?xt=urn:btih:6a147d0de8a3516e5ffa7b0c074605e5d7f962bc&amp;dn=Tenacious+D+-+HBO+episodes+%281997-2000%29+%5BAVI%5D+%5BDivX%5D+%5BNapisy+PL%5D&amp;tr=udp%3A%2F%2Ftracker.openbittorrent.com%3A80&amp;tr=udp%3A%2F%2Fopen.demonii.com%3A1337&amp;tr=udp%3A%2F%2Ftracker.coppersurfer.tk%3A6969&amp;tr=udp%3A%2F%2Fexodus.desync.com%3A6969","seeders":2,"leechers":0,"uploader":"qculfj","files":12,"time":1336850315,"description":"All six HBO Episodes:\n\n1. The Search for Inspirado\n2. Angel in Disguise\n3. Death of a Dream\n4. The Greatest Song in the World\n5. The Fan\n6. Road Gig\n\n\n\n\nFormat : AVI\nFormat/Info : Audio Video Interleave\nOverall bit rate : 942 Kbps\nWriting library : VirtualDub build 18160/release\nVideo\nID : 0\nFormat : MPEG-4 Visual\nFormat profile : Simple@L3\nFormat settings, BVOP : Yes\nFormat settings, QPel : No\nFormat settings, GMC : No warppoints\nFormat settings, Matrix : Default (H.263)\nMuxing mode : Packed bitstream\nCodec ID : XVID\nCodec ID/Hint : XviD\nBit rate : 883 Kbps\nWidth : 320 pixels\nHeight : 240 pixels\nDisplay aspect ratio : 1.212\nFrame rate : 29.970 fps\nResolution : 24 bits\nColorimetry : 4:2:0\nScan type : Progressive\nBits/(Pixel*Frame) : 0.383\nStream size : 92.4 MiB (94%)\nWriting library : XviD 1.0.3 (UTC 2004-12-20)\n\nAudio\nID : 1\nFormat : MPEG Audio\nFormat version : Version 2\nFormat profile : Layer 3\nFormat_Settings_Mode : Joint stereo / Intensity Stereo + MS Stereo\nCodec ID : 55\nCodec ID/Hint : MP3\nBit rate mode : Constant\nBit rate : 48.0 Kbps\nChannel(s) : 2 channels\nSampling rate : 22.05 KHz\nResolution : 16 bits\nStream size : 5.00 MiB (5%)\nAlignment : Split accross interleaves\nInterleave, duration : 33 ms (1.00 video frame)\nInterleave, preload duration : 502 ms","torrent":{"xt":"urn:btih:6a147d0de8a3516e5ffa7b0c074605e5d7f962bc","amp;dn":"Tenacious+D+-+HBO+episodes+%281997-2000%29+%5BAVI%5D+%5BDivX%5D+%5BNapisy+PL%5D","amp;tr":["udp%3A%2F%2Ftracker.openbittorrent.com%3A80","udp%3A%2F%2Fopen.demonii.com%3A1337","udp%3A%2F%2Ftracker.coppersurfer.tk%3A6969","udp%3A%2F%2Fexodus.desync.com%3A6969"],"infoHash":"6a147d0de8a3516e5ffa7b0c074605e5d7f962bc","infoHashBuffer":{"type":"Buffer","data":[106,20,125,13,232,163,81,110,95,250,123,12,7,70,5,229,215,249,98,188]},"announce":[],"urlList":[]}}